<svg width="8" height="8" viewBox="0 0 8 8" fill="none" xmlns="http://www.w3.org/2000/svg">
<path d="M0.758294 8C0.976303 8 1.16588 7.91469 1.30806 7.76303L3.99052 5.06161L6.69194 7.76303C6.83412 7.90521 7.01422 8 7.23223 8C7.64929 8 7.99052 7.64929 7.99052 7.23223C7.99052 7.01422 7.91469 6.83412 7.76303 6.69194L5.07109 4L7.77251 1.2891C7.93365 1.12796 8 0.966825 8 0.758294C8 0.331754 7.65877 0 7.24171 0C7.04265 0 6.88152 0.0663507 6.72038 0.227488L3.99052 2.93839L1.2891 0.236967C1.14692 0.0853081 0.976303 0.0189573 0.758294 0.0189573C0.341232 0.0189573 0 0.341232 0 0.767772C0 0.976303 0.0853081 1.1564 0.227488 1.29858L2.91943 4L0.227488 6.70142C0.0853081 6.83412 0 7.0237 0 7.23223C0 7.64929 0.341232 8 0.758294 8Z" fill="white"/>
</svg>
