<svg width="12" height="12" viewBox="0 0 12 12" fill="none" xmlns="http://www.w3.org/2000/svg">
<path d="M1.67756 11.3333C1.96824 11.3333 2.22101 11.2196 2.41058 11.0174L5.9872 7.41549L9.58909 11.0174C9.77867 11.207 10.0188 11.3333 10.3095 11.3333C10.8656 11.3333 11.3205 10.8657 11.3205 10.3096C11.3205 10.019 11.2194 9.77884 11.0172 9.58926L7.42796 6L11.0299 2.38547C11.2447 2.17062 11.3332 1.95577 11.3332 1.67773C11.3332 1.10901 10.8782 0.666672 10.3221 0.666672C10.0567 0.666672 9.84186 0.755139 9.62701 0.969989L5.9872 4.58452L2.3853 0.982627C2.19573 0.780416 1.96824 0.691948 1.67756 0.691948C1.12148 0.691948 0.666504 1.12165 0.666504 1.69037C0.666504 1.96841 0.780248 2.20854 0.969821 2.39811L4.55908 6L0.969821 9.6019C0.780248 9.77884 0.666504 10.0316 0.666504 10.3096C0.666504 10.8657 1.12148 11.3333 1.67756 11.3333Z" fill="white"/>
</svg>
