<svg width="12" height="12" viewBox="0 0 12 12" fill="none" xmlns="http://www.w3.org/2000/svg">
<path d="M1.67762 11.3333C1.9683 11.3333 2.22107 11.2196 2.41064 11.0174L5.98726 7.41549L9.58916 11.0174C9.77873 11.207 10.0189 11.3333 10.3095 11.3333C10.8656 11.3333 11.3206 10.8657 11.3206 10.3096C11.3206 10.019 11.2195 9.77884 11.0173 9.58926L7.42802 6L11.0299 2.38547C11.2448 2.17062 11.3332 1.95577 11.3332 1.67773C11.3332 1.10901 10.8783 0.666672 10.3222 0.666672C10.0568 0.666672 9.84192 0.755139 9.62707 0.969989L5.98726 4.58452L2.38536 0.982627C2.19579 0.780416 1.9683 0.691948 1.67762 0.691948C1.12154 0.691948 0.666565 1.12165 0.666565 1.69037C0.666565 1.96841 0.780309 2.20854 0.969882 2.39811L4.55914 6L0.969882 9.6019C0.780309 9.77884 0.666565 10.0316 0.666565 10.3096C0.666565 10.8657 1.12154 11.3333 1.67762 11.3333Z" fill="white"/>
</svg>
